<?xml version="1.0" encoding="utf-8"?>
<!-- Generator: Adobe Illustrator 15.1.0, SVG Export Plug-In . SVG Version: 6.00 Build 0)  -->
<!DOCTYPE svg PUBLIC "-//W3C//DTD SVG 1.1//EN" "http://www.w3.org/Graphics/SVG/1.1/DTD/svg11.dtd">
<svg version="1.1"
	 id="Layer_1" xmlns:inkscape="http://www.inkscape.org/namespaces/inkscape" xmlns:cc="http://creativecommons.org/ns#" sodipodi:docname="Google_Chrome_2011_Logo.svg" xmlns:rdf="http://www.w3.org/1999/02/22-rdf-syntax-ns#" xmlns:svg="http://www.w3.org/2000/svg" xmlns:sodipodi="http://sodipodi.sourceforge.net/DTD/sodipodi-0.dtd" xmlns:dc="http://purl.org/dc/elements/1.1/" inkscape:version="0.48.0 r9654"
	 xmlns="http://www.w3.org/2000/svg" xmlns:xlink="http://www.w3.org/1999/xlink" x="0px" y="0px" width="100px" height="100px"
	 viewBox="35.109 35.138 100 100" enable-background="new 35.109 35.138 100 100" xml:space="preserve">
<sodipodi:namedview  fit-margin-top="0" showgrid="false" borderopacity="1" inkscape:window-maximized="1" fit-margin-bottom="0" inkscape:window-y="-4" inkscape:cx="324.1857" inkscape:zoom="0.82051792" fit-margin-right="0" inkscape:window-width="1024" inkscape:window-x="-4" inkscape:pageshadow="2" inkscape:current-layer="Layer_1" pagecolor="#ffffff" inkscape:cy="85.139249" inkscape:window-height="712" fit-margin-left="0" inkscape:pageopacity="0" bordercolor="#666666" guidetolerance="10" gridtolerance="10" objecttolerance="10" id="namedview70">
	</sodipodi:namedview>
<circle id="circle47_1_" sodipodi:cy="85.712997" sodipodi:rx="83.805" sodipodi:cx="85.314003" sodipodi:ry="83.805" fill="#FFFFFF" cx="85.23" cy="85.329" r="49.234">
</circle>
<path id="path49_1_" inkscape:connector-curvature="0" fill-opacity="0.1" d="M116.56,94.28c0-17.303-14.027-31.331-31.33-31.331
	c-17.304,0-31.332,14.027-31.332,31.331h8.952c0-12.359,10.02-22.379,22.379-22.379s22.379,10.02,22.379,22.379"/>
<circle id="circle51_1_" sodipodi:cy="96.378998" sodipodi:rx="28.951" sodipodi:cx="89.123001" sodipodi:ry="28.951" fill-opacity="0.1" cx="87.467" cy="91.595" r="17.008">
</circle>
<linearGradient id="circle53_2_" gradientUnits="userSpaceOnUse" x1="-2247.3711" y1="1667.3816" x2="-2247.3711" y2="1667.8289" gradientTransform="matrix(82 0 0 82 184369.6562 -136658.2656)">
	<stop  offset="0" style="stop-color:#81B4E0"/>
	<stop  offset="1" style="stop-color:#0C5A94"/>
</linearGradient>
<circle id="circle53_1_" sodipodi:cy="85.711998" sodipodi:rx="31.236" sodipodi:cx="85.314003" sodipodi:ry="31.236" fill="url(#circle53_2_)" cx="85.23" cy="85.328" r="18.35">
</circle>
<linearGradient id="path55_2_" gradientUnits="userSpaceOnUse" x1="-1969.7041" y1="2340.6736" x2="-1969.7041" y2="2381.4041" gradientTransform="matrix(1 0 0 1 2056.5 -2305.4749)">
	<stop  offset="0" style="stop-color:#F06B59"/>
	<stop  offset="1" style="stop-color:#DF2227"/>
</linearGradient>
<path id="path55_1_" inkscape:connector-curvature="0" fill="url(#path55_2_)" d="M129.988,62.949
	c-12.323-24.792-42.41-34.901-67.202-22.578c-7.731,3.842-14.338,9.615-19.181,16.76l20.141,34.911
	c-3.709-11.79,2.842-24.354,14.631-28.063c2.073-0.652,4.232-0.999,6.405-1.029"/>
<linearGradient id="path57_2_" gradientUnits="userSpaceOnUse" x1="-2009.1929" y1="2426.4353" x2="-1988.6045" y2="2392.4197" gradientTransform="matrix(1 0 0 1 2056.5 -2305.4749)">
	<stop  offset="0" style="stop-color:#388B41"/>
	<stop  offset="1" style="stop-color:#4CB749"/>
</linearGradient>
<path id="path57_1_" inkscape:connector-curvature="0" fill="url(#path57_2_)" d="M43.605,57.132
	c-15.417,22.997-9.271,54.135,13.725,69.551c7.115,4.771,15.334,7.637,23.871,8.328l21.037-35.806
	c-7.866,9.533-21.971,10.886-31.504,3.02c-3.238-2.672-5.66-6.199-6.988-10.182"/>
<linearGradient id="path59_2_" gradientUnits="userSpaceOnUse" x1="-1940.2236" y1="2430.0515" x2="-1962.1545" y2="2377.2383" gradientTransform="matrix(1 0 0 1 2056.5 -2305.4749)">
	<stop  offset="0" style="stop-color:#E4B022"/>
	<stop  offset="0.3" style="stop-color:#FCD209"/>
</linearGradient>
<path id="path59_1_" inkscape:connector-curvature="0" fill="url(#path59_2_)" d="M81.201,135.01
	c27.607,2.087,51.678-18.601,53.766-46.208c0.673-8.907-1.045-17.832-4.979-25.853H84.782c12.358,0.057,22.333,10.123,22.275,22.482
	c-0.022,5-1.721,9.849-4.82,13.773"/>
<linearGradient id="path61_2_" gradientUnits="userSpaceOnUse" x1="-2002.3774" y1="2396.1746" x2="-2002.3774" y2="2360.3689" gradientTransform="matrix(1 0 0 1 2056.5 -2305.4749)">
	<stop  offset="0" style="stop-color:#000000;stop-opacity:0.15"/>
	<stop  offset="0.3" style="stop-color:#000000;stop-opacity:0.06"/>
	<stop  offset="1" style="stop-color:#000000;stop-opacity:0.03"/>
</linearGradient>
<path id="path61_1_" inkscape:connector-curvature="0" fill="url(#path61_2_)" d="M43.605,57.132l20.141,34.911
	c-1.492-5.021-1.175-10.407,0.895-15.218L44.5,55.788"/>
<linearGradient id="path63_2_" gradientUnits="userSpaceOnUse" x1="-1952.9546" y1="2407.738" x2="-1977.5712" y2="2432.8022" gradientTransform="matrix(1 0 0 1 2056.5 -2305.4749)">
	<stop  offset="0" style="stop-color:#000000;stop-opacity:0.15"/>
	<stop  offset="0.3" style="stop-color:#000000;stop-opacity:0.06"/>
	<stop  offset="1" style="stop-color:#000000;stop-opacity:0.03"/>
</linearGradient>
<path id="path63_1_" inkscape:connector-curvature="0" fill="url(#path63_2_)" d="M81.201,135.01l21.037-35.806
	c-3.319,3.958-7.905,6.646-12.98,7.609l-8.952,28.196"/>
<linearGradient id="path65_2_" gradientUnits="userSpaceOnUse" x1="-1953.312" y1="2414.95" x2="-1949.7313" y2="2379.5911" gradientTransform="matrix(1 0 0 1 2056.5 -2305.4749)">
	<stop  offset="0" style="stop-color:#000000;stop-opacity:0.15"/>
	<stop  offset="0.3" style="stop-color:#000000;stop-opacity:0.06"/>
	<stop  offset="1" style="stop-color:#000000;stop-opacity:0.03"/>
</linearGradient>
<path id="path65_1_" inkscape:connector-curvature="0" fill="url(#path65_2_)" d="M129.988,62.949H84.782
	c6.81,0.032,13.234,3.161,17.455,8.504l28.645-7.161"/>
</svg>
