<?xml version="1.0" encoding="utf-8"?>
<!-- Generator: Adobe Illustrator 15.1.0, SVG Export Plug-In . SVG Version: 6.00 Build 0)  -->
<!DOCTYPE svg PUBLIC "-//W3C//DTD SVG 1.1//EN" "http://www.w3.org/Graphics/SVG/1.1/DTD/svg11.dtd">
<svg version="1.1" id="Layer_1" xmlns="http://www.w3.org/2000/svg" xmlns:xlink="http://www.w3.org/1999/xlink" x="0px" y="0px"
	 width="100px" height="100px" viewBox="16.36 13.609 100 100" enable-background="new 16.36 13.609 100 100" xml:space="preserve">
<filter  width="150%" height="150%" y="-25%" x="-25%" id="blurshadow">
	<feGaussianBlur  result="blur" in="SourceAlpha" stdDeviation="1.5"></feGaussianBlur>
	<feOffset  result="shift" in="blur" dx="1" dy="1"></feOffset>
	<feMerge>
		<feMergeNode  in="shift"></feMergeNode>
		<feMergeNode  in="SourceGraphic"></feMergeNode>
	</feMerge>
</filter>
<title>Firefox Logo</title>
<desc>
	Firefox logo in SVG, authored by Jon Hicks, made in Adobe Illustrator  (file format cleaned up and slightly modified by Doug Schepers)
	</desc>
<g id="Firefox">
	<g id="Globe">
		<ellipse fill="#110070" cx="66.224" cy="63.438" rx="48.181" ry="48.213"/>
		
			<radialGradient id="SVGID_1_" cx="-1787.1157" cy="1871.127" r="84.6289" gradientTransform="matrix(1 0 0 -1 1854 1892.2188)" gradientUnits="userSpaceOnUse">
			<stop  offset="0" style="stop-color:#67C5D5"/>
			<stop  offset="0.1604" style="stop-color:#66C2D3"/>
			<stop  offset="0.2795" style="stop-color:#62B9CE"/>
			<stop  offset="0.3852" style="stop-color:#5CA8C6"/>
			<stop  offset="0.4832" style="stop-color:#5392BA"/>
			<stop  offset="0.5759" style="stop-color:#4874AA"/>
			<stop  offset="0.6646" style="stop-color:#3A5097"/>
			<stop  offset="0.7485" style="stop-color:#2A2781"/>
			<stop  offset="0.8146" style="stop-color:#1B006D"/>
			<stop  offset="1" style="stop-color:#596AAD"/>
		</radialGradient>
		<ellipse fill="url(#SVGID_1_)" cx="66.224" cy="63.438" rx="47.271" ry="47.303"/>
		
			<radialGradient id="SVGID_2_" cx="-1787.1289" cy="1865.4844" r="42.4135" gradientTransform="matrix(1 0 0 -1 1854 1892.2188)" gradientUnits="userSpaceOnUse">
			<stop  offset="0" style="stop-color:#0F80BC"/>
			<stop  offset="0.3376" style="stop-color:#0A5F9E"/>
			<stop  offset="1" style="stop-color:#00145A"/>
		</radialGradient>
		<path fill="url(#SVGID_2_)" d="M59.443,87.856c-0.059-0.257-0.696-1.002-1.184-1.168c-0.487-0.167-0.965,0.718-1.278-0.75
			c-1.028,0.59-1.472-0.163-1.472-0.163s-1.108,0.065-1.323,1.422c-0.527,0.625-1.88,2.896-1.162,0.534
			c0.724-2.377-0.763-0.187-0.901,1.007c-0.258,0.53-0.694,0.583-0.42-1.801c-0.953-0.329-1.439-2.539-0.917-2.582
			c-0.606-0.846-0.13-2.138,0.375-2.069c0.505,0.065,1.372-1.104,1.346-1.376c-0.027-0.27,0.391-0.076,0.365-1.896
			c-0.026-1.823,0.688-2.275,0.747-0.75c0.062,1.521,0.969-0.498,0.876-1.271c-0.094-0.771,0.091-2.513,0.644-1.482
			c-0.644-2.548-0.136-2.647,0.251-0.952c0.969,0.076,1.002,0.592,1.002,0.592c1.072-0.264,1.586,0.544,1.669,0.997
			c0.994-1.173,1.998,0.092,1.998,0.092s0.693-0.229,0.361,0.975c-0.333,1.2,1.439,0.551,1.016-0.312
			c0.872-0.441,2.165,0.895,2.573,1.806c0.408,0.915-0.698,2.212,0.164,2.524c0.867,0.312,0.487,1.821,0.487,1.821
			s1.812,1.005,0.554,1.868l-0.429,1.026c0,0,0.82,0.915,1.1,0.371c0.279-0.546,0.378,0.554,0.378,0.554
			c-0.104-0.194,0.202,1.134,1.333,1.413c1.135,0.277,1.854,2.071,0.594,2.094c-1.256,0.021-1.354-0.014-1.694,0.72
			c-0.338,0.729-1.941,0.756-2.771-0.189c-0.882,0.299-2.453-0.086-1.991-0.792c-0.762,0.444-1.481-0.749-0.886-1.281
			c0.596-0.53-0.334-1.217-0.647-0.457c-0.309,0.76-1.952,1.134-1.837-0.158c0.034-0.384,0.909-0.607,0.921-0.287
			C59.444,88.303,59.509,87.904,59.443,87.856z"/>
		<g>
			
				<radialGradient id="SVGID_3_" cx="-1787.1279" cy="1865.4727" r="42.4045" gradientTransform="matrix(1 0 0 -1 1854 1892.2188)" gradientUnits="userSpaceOnUse">
				<stop  offset="0" style="stop-color:#0F80BC"/>
				<stop  offset="0.3376" style="stop-color:#0A5F9E"/>
				<stop  offset="1" style="stop-color:#00145A"/>
			</radialGradient>
			<path fill="url(#SVGID_3_)" d="M98.53,50.885c0.252,0.248,0.744,0.193,1.02,0.117c0.273-0.079,0.236-0.274,0.473-0.35
				c0.232-0.079,1.135,0.35,0.898,1.286c-0.547,0.076-0.744,0.74-0.744,0.74s-0.547,0.233-0.822,0.117
				c-0.275-0.117-0.275-0.079-0.668-0.041c-0.393,0.041-1.334-0.505-0.312-0.505c1.02,0-0.117-0.468-0.549-0.468
				c-0.43,0-0.08-0.429,0.432-0.312C97.903,50.885,98.098,50.454,98.53,50.885z"/>
			
				<radialGradient id="SVGID_4_" cx="-1787.1401" cy="1865.4834" r="42.4233" gradientTransform="matrix(1 0 0 -1 1854 1892.2188)" gradientUnits="userSpaceOnUse">
				<stop  offset="0" style="stop-color:#0F80BC"/>
				<stop  offset="0.3376" style="stop-color:#0A5F9E"/>
				<stop  offset="1" style="stop-color:#00145A"/>
			</radialGradient>
			<path fill="url(#SVGID_4_)" d="M94.995,53.003c-0.273,0.271,0.041,1.091,0.393,1.051c0.352-0.039,0.902-0.194,0.902-0.194
				s0.273,0.546,0,0.704c-0.273,0.154-1.072,0.085-0.039,0.467c1.059,0.389,1.332,0.271,1.41,0.076
				c0.08-0.193,0.43-0.856,0.629-0.817c0.156-0.35-0.549-0.662-0.156-0.897c0.389-0.234,0.078-1.09,0.078-1.09
				s-0.551,0.038-0.785,0.429c-0.234,0.39-0.547-0.038-0.783-0.038c-0.039,0.233-0.197,0.428-0.197,0.428l-0.156-0.352
				C96.29,52.768,95.19,52.73,94.995,53.003z"/>
		</g>
		
			<radialGradient id="SVGID_5_" cx="-1786.4365" cy="1861.4678" r="46.5959" gradientTransform="matrix(1 0 0 -1 1854 1892.2188)" gradientUnits="userSpaceOnUse">
			<stop  offset="0" style="stop-color:#0F80BC"/>
			<stop  offset="0.2643" style="stop-color:#0B629B"/>
			<stop  offset="0.8439" style="stop-color:#031747"/>
			<stop  offset="1" style="stop-color:#00022F"/>
		</radialGradient>
		<path fill="url(#SVGID_5_)" d="M87.668,53.645c-0.033-0.1,0.312-0.503,0.219,0.02c-0.213,0.372,0.859,0.707,1.16,0.292
			c1.008-1.381-0.949-2.048-1.799-1.407c-0.859,0.647-1.33-0.741-0.346-0.938c0.982-0.199,1.064-1.973-0.016-1.979
			c0.953-0.471-0.369-1.882-1.463-2.124c-0.176-1.519-1.775-2.484-2.619-1.933c-0.85,0.553-0.922,0.456-2.168-0.3
			c-1.24-0.753-1.84,1.565-0.926,2.578c0.918,1.02,0.252,2.664,0.291,2.383c0,0-0.346,0.622-0.324,0.855
			c-1.051,0.357-1.357-1.123-2.01-1.451c-0.475,0.62-1.242,0.95-1.242,0.95l0.059-1.261c0,0-3.264-1.777-4.264-1.279
			c-1.236,0.382-1.529,3.241-0.406,3.659c1.123,0.423-1.41,1.477,1.131,4.154c2.609,2.75,3.617,2.829,4.15,2.381
			c0.131-0.113,0.359-0.282,0.637-0.469c0.025,0.105,0.066,0.207,0.131,0.303c0.654,0.982-1.518,1.755-1.82,3.162
			c-0.309,1.422-0.023,4.065,1.264,4.156c0.246-1.409,2.654-0.911,1.344,0.366c-1.334,1.301-0.398,1.531-0.398,1.531
			s0.064,2.438,2.105,1.658c-0.059,0.14-0.107,0.318-0.135,0.514c-0.572-0.115-1.967-0.291-2.309,0.683
			c-0.43,1.228-2.252-0.416-3.527,0.136c-1.268,0.547-3.121,2.345-2.498,3.607c1.199-0.568,2.115,1.994,0.441,1.469
			c-1.68-0.528-1.354,0.473-1.354,0.473s-1.748,1.38-0.109,2.849c-0.631,0.097-1.748,0.797-1.371,2.334c0,0-0.719,0.025-0.816,1.401
			c-2.344,0.473-2.201,1.2,1.326,0.403c-1.423,0.738,0.996,1.086,2.066,0.987c1.074-0.098,3.893,1.292,1.775,1.307
			c-2.121,0.013-1.488,1.051,1.051,1.1c2.535,0.053,2.27,0.64,2.646,0.613c0.377-0.025,2.018,1.269,1.928,1.985
			c-0.092,0.718,1.719,1.462,2.895,0.64c0.061,0.746,3.156,0.164,3.615-1.182c3.352,0.513,3.275-0.112,2.527-0.511
			c-1.678-0.257-4.758-2.487-1.418-1.34c3.324,1.146,0.123-0.9-0.754-1.688c-1.908-0.371-2.006-1.962-2.006-1.962
			s1.055-0.599,0.223-2.1c2.062-0.382,0.816-1.106,1.049-1.798c0.23-0.693,1.277-1.577,1.637-1.648
			c0.068-0.094,0.629,0.019,0.109,0.229c-0.451,0.006-0.131,1.271,0.406,1.337c1.822,0.222,1.289-2.155,0.219-2.634
			c-1.07-0.481-0.109-1.789,0.643-0.909c0.754,0.879,2.432-0.108,1.803-1.222c1,0.694,1.539-1.55,1.113-2.838
			c1.338-1.16,1.295-3.474,0.26-3.991c-0.51-0.254-0.756-0.418-0.879-0.734c0.615-0.291,1.432-0.505,1.75-0.219
			c0.521,0.471,1.969-0.826,1.877-2.342c0.611,0.334,1.582-2.757,0.758-3.839c1.889-2.641,1.379-2.88,0.746-2.438
			c-0.949,1.317-4.07,2.894-1.65,0.559c2.348-2.266-0.625-0.548-1.619-0.18c-1.172,1.466-2.412,0.761-2.412,0.761
			s0.053-1.201-1.459-1.225c0.699-1.927-0.426-1.231-0.82-1.757C87.69,55.258,87.547,53.973,87.668,53.645z"/>
		
			<radialGradient id="SVGID_6_" cx="-1787.1309" cy="1865.4844" r="42.4065" gradientTransform="matrix(1 0 0 -1 1854 1892.2188)" gradientUnits="userSpaceOnUse">
			<stop  offset="0" style="stop-color:#0F80BC"/>
			<stop  offset="0.3376" style="stop-color:#0A5F9E"/>
			<stop  offset="1" style="stop-color:#00145A"/>
		</radialGradient>
		<path fill="url(#SVGID_6_)" d="M63.18,34.34c-0.293,0.764,0.957,2.006,1.584,1.606c0.629-0.402,1.531-1.204,1.531-1.204
			s0.956,0.768,0.569,1.315c-0.389,0.545-1.937,1.159,0.305,0.911c2.299-0.254,2.717-0.729,2.705-1.167
			c-0.012-0.437,0.115-2.004,0.512-2.113c0.014-0.804-1.561-0.729-1.016-1.534c0.545-0.801-0.735-2.116-0.735-2.116
			s-0.997,0.583-1.122,1.533c-0.126,0.948-1.059,0.437-1.5,0.655c0.114,0.474-0.021,0.984-0.021,0.984l-0.577-0.511
			C65.414,32.699,63.326,33.648,63.18,34.34z"/>
		
			<radialGradient id="SVGID_7_" cx="-1787.1299" cy="1865.4785" r="42.4091" gradientTransform="matrix(1 0 0 -1 1854 1892.2188)" gradientUnits="userSpaceOnUse">
			<stop  offset="0" style="stop-color:#0F80BC"/>
			<stop  offset="0.3376" style="stop-color:#0A5F9E"/>
			<stop  offset="1" style="stop-color:#00145A"/>
		</radialGradient>
		<path fill="url(#SVGID_7_)" d="M66.917,74.474c-0.273,0.271,0.041,1.091,0.393,1.053c0.353-0.04,0.901-0.195,0.901-0.195
			s0.273,0.547,0,0.703c-0.275,0.154-1.071,0.088-0.039,0.467c1.058,0.39,1.332,0.272,1.412,0.078
			c0.076-0.194,0.43-0.857,0.625-0.819c0.158-0.35-0.549-0.661-0.156-0.895c0.393-0.236,0.08-1.093,0.08-1.093
			s-0.549,0.038-0.785,0.429c-0.234,0.39-0.548-0.04-0.783-0.04c-0.04,0.234-0.195,0.43-0.195,0.43l-0.156-0.351
			C68.212,74.24,67.114,74.201,66.917,74.474z"/>
		<g>
			<g>
				<defs>
					<ellipse id="SVGID_8_" cx="66.224" cy="63.438" rx="47.271" ry="47.303"/>
				</defs>
				<clipPath id="SVGID_9_">
					<use xlink:href="#SVGID_8_"  overflow="visible"/>
				</clipPath>
				
					<linearGradient id="SVGID_10_" gradientUnits="userSpaceOnUse" x1="-1777.5317" y1="1863.5195" x2="-1763.8417" y2="1862.3523" gradientTransform="matrix(1 0 0 -1 1854 1892.2188)">
					<stop  offset="0" style="stop-color:#0F80BC"/>
					<stop  offset="0.3376" style="stop-color:#0A5F9E"/>
					<stop  offset="1" style="stop-color:#00145A"/>
				</linearGradient>
				<path clip-path="url(#SVGID_9_)" fill="url(#SVGID_10_)" d="M67.284,16.039c-0.74,0.165,0.498,2.844,0.498,2.844
					s-0.045,1.799,0.261,1.892c0.304,0.092,2.315,0.595,3.368,1.904c1.055,1.311,0.506,2-0.373,1.622
					c-0.879-0.377-0.646,0.779-0.646,0.779s2.654,0.863,0.648,0.808c-2.01-0.054,1.354,1.414,1.133,1.567
					c-0.223,0.155-0.35,1-0.35,1s-1.773,0.147-0.27,0.778c5.084,2.141-0.543,1.563-0.543,1.563l-0.719,0.883l1.42,1.782l1.092,0.781
					c0,0,2.301-0.768,3.018-0.888c0.719-0.119,2.529-1.474,2.529-1.474s0.543,0.389,0.137-0.403
					c-0.406-0.792,1.496-0.438,1.971,0.151l3.355,1.516c0.045,0.117,0.119,0.223,0.238,0.305c0.654,0.458-0.594,1.247-0.467,2.081
					c0.127,0.825,0.889,2.195,1.723,2.051c-0.146-0.787,1.504-0.882,0.93-0.005c-0.572,0.875,0.062,0.858,0.062,0.858
					s0.529,1.235,1.652,0.549c-0.047,0.376,0.184,1.135,1.146,1.185c0,0-0.102,0.411,0.688,0.703
					c-0.105,1.41,0.346,1.455,0.457-0.688c0.197,0.939,0.805-0.382,0.926-1.015c0.123-0.637,1.426-2.034,1.074-0.799
					c-0.352,1.224,3.844,1.672,4.309,0.21c0.471-1.474,2.143-2.243,2.191-2.467c0.051-0.228-3.721-0.578-3.305-0.4
					c0.418,0.178,1.193-0.77,0.906-1.612c0.467,0.094,0.674-1.869-0.066-2.377c0.928-1.953,0.527-2.014,0.146-1.625
					c-0.463,0.979-2.373,2.455-1.076,0.636c1.305-1.837-0.531-0.23-1.168,0.169c-0.561,1.089-1.543,0.877-1.543,0.877
					s-0.18-0.74-1.23-0.493c0.121-1.309-0.529-0.681-0.91-0.937c-0.23-0.157-0.453-0.509-0.588-0.812
					c0.904,0.367,2.119,0.757,1.91,0.084c-0.135-0.44,1.715,0.522,1.779,0.322l2.312-0.322l2.248-1.421
					C83.79,15.358,67.284,16.039,67.284,16.039z"/>
			</g>
			<g>
				<defs>
					<ellipse id="SVGID_11_" cx="66.224" cy="63.438" rx="47.271" ry="47.303"/>
				</defs>
				<clipPath id="SVGID_12_">
					<use xlink:href="#SVGID_11_"  overflow="visible"/>
				</clipPath>
				
					<linearGradient id="SVGID_13_" gradientUnits="userSpaceOnUse" x1="-1808.2915" y1="1861.4463" x2="-1815.8574" y2="1850.3339" gradientTransform="matrix(1 0 0 -1 1854 1892.2188)">
					<stop  offset="0" style="stop-color:#0F80BC"/>
					<stop  offset="0.3376" style="stop-color:#0A5F9E"/>
					<stop  offset="1" style="stop-color:#00145A"/>
				</linearGradient>
				<path clip-path="url(#SVGID_12_)" fill="url(#SVGID_13_)" d="M45.921,20.174c-8.585,3.855-15.063,11.8-15.063,11.8
					s0.762,1.742,1.027,1.614c0.268-0.127-1.917,4.57-0.313,4.834c1.611,0.264,6.249-2.905,5.389-2.615
					c-0.857,0.29,0.483-1.714,0.483-1.714s2.414-1.07,0.986,0.164c-1.415,1.228,1.882,0.152,1.832,0.403
					c-0.053,0.253,0.426,0.932,0.426,0.932s-1.131,1.213,0.33,0.724c5.012-1.685,0.66,1.445,0.66,1.445l0.086,1.065l2.168,0.377
					l1.281-0.122c0,0,1.122-1.979,1.554-2.516c0.435-0.539,0.835-2.667,0.835-2.667s0.652-0.068-0.173-0.38
					c-0.825-0.313,0.789-1.286,1.531-1.165l3.494-1.085c0.112,0.056,0.237,0.084,0.382,0.067c0.8-0.092,0.397,1.302,1.051,1.827
					c0.646,0.523,2.133,1.027,2.666,0.381c-0.636-0.482,0.547-1.633,0.699-0.61c0.152,1.014,0.622,0.588,0.622,0.588
					s1.253-2.156,1.654-3.392c0.219,0.306,2.264-2.687,1.645-4.114c-0.626-1.446,0.389-2.807,0.276-3.017
					c-0.116-0.208-0.728,0.429-0.276,0.276c0.455-0.156-1.291,0.627-1.522-1.674c-0.234-2.347-0.574,0.197-0.8,0.949
					c0.306,1.225,3.483-4.948,3.483-4.948l4.096-1.67C66.427,15.934,57.104,15.154,45.921,20.174z"/>
			</g>
		</g>
		
			<linearGradient id="SVGID_14_" gradientUnits="userSpaceOnUse" x1="-1788.6719" y1="1848.9414" x2="-1788.6719" y2="1867.335" gradientTransform="matrix(1 0 0 -1 1854 1892.2188)">
			<stop  offset="0.0137" style="stop-color:#000000;stop-opacity:0"/>
			<stop  offset="0.65" style="stop-color:#C4E0E3;stop-opacity:0.2"/>
			<stop  offset="0.8224" style="stop-color:#C4E0E3"/>
			<stop  offset="0.8498" style="stop-color:#CDE5E8"/>
			<stop  offset="0.9443" style="stop-color:#E8F4F7"/>
			<stop  offset="1" style="stop-color:#F2FAFC"/>
		</linearGradient>
		<ellipse opacity="0.5" fill="url(#SVGID_14_)" enable-background="new    " cx="65.328" cy="34.121" rx="25.03" ry="16.217"/>
	</g>
	<g id="Fox" filter="url(#blurshadow)">
		<g>
			
				<linearGradient id="SVGID_15_" gradientUnits="userSpaceOnUse" x1="-1787.1885" y1="1831.2764" x2="-1775.8296" y2="1837.9474" gradientTransform="matrix(1 0 0 -1 1854 1892.2188)">
				<stop  offset="0" style="stop-color:#DF731B"/>
				<stop  offset="0.5449" style="stop-color:#DF731B"/>
				<stop  offset="0.7014" style="stop-color:#EC8811"/>
				<stop  offset="0.8593" style="stop-color:#F4950B"/>
				<stop  offset="1" style="stop-color:#F79A09"/>
			</linearGradient>
			<path fill="url(#SVGID_15_)" d="M116.215,50.209l-1.158,7.43c0,0-1.654-13.756-3.684-18.898c-3.111-7.88-4.494-7.816-4.504-7.805
				c2.084,5.293,1.707,8.137,1.707,8.137s-3.691-10.059-13.449-13.258c-11.557-3.788-17.443-2.419-17.4-2.367
				c0.045,0.054,11.945,2.081,14.055,4.98c0,0-5.055,0-10.086,1.45c-0.227,0.065,18.51,2.34,22.34,21.062
				c0,0-2.055-4.285-4.594-5.013c1.67,5.082,1.24,14.725-0.35,19.517c-0.205,0.616-0.414-2.664-3.549-4.077
				c1.004,7.192-0.059,18.599-5.049,21.741c-0.389,0.244,3.127-11.26,0.707-6.812c-14.451,22.158-31.632,8.965-38.601,4.263
				c5.593,1.37,11.535,0.383,14.974-1.968c3.471-2.372,5.525-4.106,7.369-3.697c1.844,0.412,3.07-1.438,1.639-3.078
				c-1.434-1.645-4.914-3.905-9.621-2.673c-3.321,0.869-7.436,4.543-13.716,0.823c-5.358-3.175-5.322-5.753-5.322-7.396
				s1.462-4.141,4.122-3.731c2.382,0.368,1.127-1.031,3.69,0c0.699,0.281-0.07-3.353-1.063-5.681
				c1.914-3.994,8.124-5.181,8.587-5.531c0.839-0.635,0.377-0.952,0.664-1.909c0.268-0.891,0.439-3.298-6.509-2.633
				c-3.198,0.306-5.232-3.837-5.899-4.844c0.216-1.28,0.563-2.45,1.032-3.522c0.477-0.977,0.997-1.872,1.517-2.549
				c0.162-0.212,0.304-0.398,0.432-0.571c1.036-1.208,2.308-2.241,3.834-3.101c0.796-0.45-8.907-0.028-13.273,5.664
				c-1.171,0.152-2.779-0.186-4.577-0.186c-2.252,0-4.021,0.246-5.659,0.658c-0.263,0.065-0.685,0.03-1.203-0.094
				c-1.441-1.493-5.52-5.082-5.706-9.95c0,0-5.929,4.557-5.042,16.981c-0.078,6.87-2.106,4.906-3.15,8.635
				c-0.485,1.767,0.73,3.098,0.73,3.149c-0.001,0.027,1.459-1.58,1.459-1.58s-9.195,15.929,2.679,36.264
				c10.235,17.53,27.409,25.278,45.232,23.77c3.117-0.203,6.256-0.667,9.391-1.424C120.731,100.347,116.215,50.209,116.215,50.209z"
				/>
		</g>
		
			<linearGradient id="SVGID_16_" gradientUnits="userSpaceOnUse" x1="-1805.5732" y1="1846.9795" x2="-1796.7565" y2="1846.2241" gradientTransform="matrix(1 0 0 -1 1854 1892.2188)">
			<stop  offset="0.0112" style="stop-color:#941403"/>
			<stop  offset="0.8972" style="stop-color:#E85C0A"/>
		</linearGradient>
		<path fill="url(#SVGID_16_)" d="M51.375,37.645c0,0,1.794,4.903,5.82,4.887c7.679-0.031,7.833,0.075,7.882,1.009
			c0.153,2.842-1.25,3.773-1.787,4.178c-0.539,0.403-7.851,4.644-8.12,5.855c-0.269,1.211-8.438-11.529-8.438-11.529L51.375,37.645z
			"/>
		
			<linearGradient id="SVGID_17_" gradientUnits="userSpaceOnUse" x1="-1819.6929" y1="1849.4248" x2="-1787.8673" y2="1845.4467" gradientTransform="matrix(1 0 0 -1 1854 1892.2188)">
			<stop  offset="0.0112" style="stop-color:#941403"/>
			<stop  offset="0.1357" style="stop-color:#A32104"/>
			<stop  offset="0.4978" style="stop-color:#C84107"/>
			<stop  offset="0.7893" style="stop-color:#DF5509"/>
			<stop  offset="0.972" style="stop-color:#E85C0A"/>
		</linearGradient>
		<path fill="url(#SVGID_17_)" d="M55.463,42.931c0,0,2.495,3.185,0.608,4.459c-2.305,1.556,3.258,1.896,5.273,0.765
			c2.015-1.131,3.252-2.793,3.323-3.041c0.07-0.248,0.733-2.48-3.475-1.702C58.534,43.904,57.56,44.017,55.463,42.931z"/>
		
			<linearGradient id="SVGID_18_" gradientUnits="userSpaceOnUse" x1="-1799.9751" y1="1841.0059" x2="-1797.4374" y2="1842.1224" gradientTransform="matrix(1 0 0 -1 1854 1892.2188)">
			<stop  offset="0" style="stop-color:#F2C8A9"/>
			<stop  offset="1" style="stop-color:#FFFFCC"/>
		</linearGradient>
		<path fill="url(#SVGID_18_)" d="M63.291,47.719c0.408-0.307,1.312-0.923,1.658-2.445c-0.252,0.103-0.276-0.187-0.574-0.062
			c-5.647,5.891-5.864,1.789-8.946,2.615c-2.81,0.769-3.44,1.824-3.559,1.906c0.042,0.06,0.084,0.12,0.126,0.179
			c0.81,0.411,1.586,1.723,2.169,2.895c0.57,0.679,0.953,1.013,1.007,0.767C55.44,52.361,62.752,48.122,63.291,47.719z"/>
		
			<linearGradient id="SVGID_19_" gradientUnits="userSpaceOnUse" x1="-1808.0674" y1="1809.9375" x2="-1765.3789" y2="1808.1797" gradientTransform="matrix(1 0 0 -1 1854 1892.2188)">
			<stop  offset="0" style="stop-color:#B30000"/>
			<stop  offset="1" style="stop-color:#DF731B"/>
		</linearGradient>
		<path fill="url(#SVGID_19_)" d="M21.096,52.4c-1.153,2.419-8.552,14.922,3.523,35.732c11.816,20.369,32.267,27.021,53.146,22.501
			c5.959-1.289,12.832-5.953,17.211-9.375c-2.814-7.097-1.148-6.83-2.656-5.896C75.5,105.774,62.13,95.504,51.782,94.19
			C13.712,89.365,21.23,52.325,21.23,52.325L21.096,52.4z"/>
		
			<linearGradient id="SVGID_20_" gradientUnits="userSpaceOnUse" x1="-1797.9077" y1="1816.5596" x2="-1775.6494" y2="1808.6122" gradientTransform="matrix(1 0 0 -1 1854 1892.2188)">
			<stop  offset="0" style="stop-color:#941403"/>
			<stop  offset="1" style="stop-color:#DF731B"/>
		</linearGradient>
		<path fill="url(#SVGID_20_)" d="M52.796,80.944c3.588,1.075,11.417,0.147,14.78-2.354c2.265-1.684,3.978-2.953,5.417-3.484
			c-2.545-1.729-2.586,0.721-7.937,1.961c-11.147,2.586-16.559-3.001-16.559-3.001c0.789,4.421,3.55,6.573,4.792,7.338
			C52.959,81.111,52.787,80.939,52.796,80.944z"/>
		
			<linearGradient id="SVGID_21_" gradientUnits="userSpaceOnUse" x1="-1818.7578" y1="1818.8701" x2="-1797.0596" y2="1818.8701" gradientTransform="matrix(0.9988 0.049 0.049 -0.9988 1747.2222 1990.8745)">
			<stop  offset="0.0562" style="stop-color:#B30000"/>
			<stop  offset="1" style="stop-color:#DE5C01"/>
		</linearGradient>
		<path fill="url(#SVGID_21_)" d="M40.708,101.131c0,0-9.279-10.472-11.87-22.199c-3.82-3.607-6.53-6.658-8.331-8.864
			C21.546,78.413,25.802,91.368,40.708,101.131z"/>
		
			<linearGradient id="SVGID_22_" gradientUnits="userSpaceOnUse" x1="-1595.209" y1="2054.0684" x2="-1583.4037" y2="2017.4951" gradientTransform="matrix(0.9929 0.1186 0.1186 -0.9929 1368.0913 2305.9668)">
			<stop  offset="0.0562" style="stop-color:#DE7210"/>
			<stop  offset="1" style="stop-color:#F6C08F"/>
		</linearGradient>
		<path fill="url(#SVGID_22_)" d="M32.967,91.62c0,0-6.404-9.117-4.003-16.858c2.16-6.96-0.459-2.819-1.982-1.332
			c-1.539,1.504-2.33-4.437-2.291-5.121c0.002-0.015,0-0.021-0.001-0.022C24.594,68.267,21.642,82.518,32.967,91.62z"/>
		
			<linearGradient id="SVGID_23_" gradientUnits="userSpaceOnUse" x1="-1814.7261" y1="1838.9268" x2="-1814.7261" y2="1798.0447" gradientTransform="matrix(0.999 0.0448 0.0448 -0.999 1755.4988 1983.071)">
			<stop  offset="0.0562" style="stop-color:#DE7210"/>
			<stop  offset="1" style="stop-color:#F6C08F"/>
		</linearGradient>
		<path fill="url(#SVGID_23_)" d="M23.479,83.673c0,0-1.46-18.505,3.154-21.12c7.329-4.154,0.611-3.182-1.514-2.029
			c-2.147,1.163-1.949-6.496-1.645-7.224C23.773,52.583,15.911,60.542,23.479,83.673z"/>
		<path fill="#A40000" d="M55.542,29.224c0,0-5.802,5.893-5.759,5.913c0.044,0.021,0.167,7.564,0.356,9.702
			C50.834,45.659,53,51,51.342,49.814c-1.694-1.21-0.472-1.235-0.324-0.621c0.004,0.021,0.004,0.03,0,0.03
			C50.906,49.275,46.807,40.354,55.542,29.224z"/>
		
			<linearGradient id="SVGID_24_" gradientUnits="userSpaceOnUse" x1="-1824.647" y1="1851.9453" x2="-1829.0823" y2="1863.311" gradientTransform="matrix(1 0 0 -1 1854 1892.2188)">
			<stop  offset="0.0112" style="stop-color:#941403"/>
			<stop  offset="0.4719" style="stop-color:#E85C0A"/>
			<stop  offset="1" style="stop-color:#F9BD5F"/>
		</linearGradient>
		<path fill="url(#SVGID_24_)" d="M27.944,24.683c0,0-6.167,4.729-4.988,17.706c4.773-4.286,11.522-7.489,11.522-7.489
			C33.345,34.187,28.149,30.03,27.944,24.683z"/>
		
			<linearGradient id="SVGID_25_" gradientUnits="userSpaceOnUse" x1="-1805.6821" y1="1849.3379" x2="-1795.0541" y2="1863.3077" gradientTransform="matrix(1 0 0 -1 1854 1892.2188)">
			<stop  offset="0.1966" style="stop-color:#DE7210"/>
			<stop  offset="0.8427" style="stop-color:#F9BD5F"/>
			<stop  offset="1" style="stop-color:#FFFCCF"/>
		</linearGradient>
		<path fill="url(#SVGID_25_)" d="M43.141,38.873l9.262,11.518c-2.672-11.311-0.618-18.098,5.96-21.8
			C59.336,28.042,44.619,28.788,43.141,38.873z"/>
		
			<linearGradient id="SVGID_26_" gradientUnits="userSpaceOnUse" x1="-1811.3013" y1="1830.2695" x2="-1800.5272" y2="1808.7214" gradientTransform="matrix(1 0 0 -1 1854 1892.2188)">
			<stop  offset="0.0169" style="stop-color:#941403"/>
			<stop  offset="0.5" style="stop-color:#E35100"/>
			<stop  offset="1" style="stop-color:#DF731B"/>
		</linearGradient>
		<path fill="url(#SVGID_26_)" d="M36.615,67.326c1.58-9.951,15.43-8.488,15.43-8.488c-0.618,0.459-2.991,0.733-3.67,2.632
			c-2.243,6.269-0.104,19.96,13.868,25.702C63.716,87.779,34.281,82.033,36.615,67.326z"/>
		
			<linearGradient id="SVGID_27_" gradientUnits="userSpaceOnUse" x1="-1795.0273" y1="1843.4854" x2="-1792.3367" y2="1841.0469" gradientTransform="matrix(1 0 0 -1 1854 1892.2188)">
			<stop  offset="0" style="stop-color:#EEA272"/>
			<stop  offset="0.1865" style="stop-color:#EFA777"/>
			<stop  offset="0.4064" style="stop-color:#F2B585"/>
			<stop  offset="0.643" style="stop-color:#F6CD9C"/>
			<stop  offset="0.8898" style="stop-color:#FCEEBB"/>
			<stop  offset="1" style="stop-color:#FFFFCC"/>
		</linearGradient>
		<path fill="url(#SVGID_27_)" d="M64.869,45.544c-0.068-0.012-0.128-0.011-0.158,0.03c-0.17,0.229-0.829,1.006-2.396,2.282
			c-2.91,2.367-4.136,1.768-6.303,2.252c-0.987,0.22-1.925,0.883-2.556,1.414c0.256,0.413,0.494,0.858,0.707,1.285
			c0.57,0.679,0.953,1.013,1.008,0.767c0.269-1.212,7.581-5.452,8.119-5.855C63.672,47.432,64.482,46.862,64.869,45.544z"/>
		
			<linearGradient id="SVGID_28_" gradientUnits="userSpaceOnUse" x1="-1810.7197" y1="1837.7246" x2="-1798.3599" y2="1825.1125" gradientTransform="matrix(1 0 0 -1 1854 1892.2188)">
			<stop  offset="0.1966" style="stop-color:#DF731B"/>
			<stop  offset="0.8427" style="stop-color:#F9BD5F"/>
			<stop  offset="1" style="stop-color:#FFFCCF"/>
		</linearGradient>
		<path fill="url(#SVGID_28_)" d="M55.939,60.588c0.081-2.103-0.066-7.211-2.252-9.428c-1.67-1.693-2.062-3.633-2.287-5.848
			c-18.159,6.783-20.752,15.649-18.936,15.361C46.988,58.371,51.07,58.089,55.939,60.588z"/>
		
			<linearGradient id="SVGID_29_" gradientUnits="userSpaceOnUse" x1="-916.6406" y1="3024.3574" x2="-916.6406" y2="2978.0222" gradientTransform="matrix(0.9673 0.2537 0.2537 -0.9673 144.6323 3205.7515)">
			<stop  offset="0.0562" style="stop-color:#DE7210"/>
			<stop  offset="1" style="stop-color:#F6C08F"/>
		</linearGradient>
		<path fill="url(#SVGID_29_)" d="M17.224,73.017c0,0,1.262-16.396,9.469-22.397c6.443-4.713,1.439-3.001-1.048-2.806
			c-2.624,0.208-4.023,1.803-3.517,1.216c0.022-0.024,0.029-0.038,0.025-0.044C22.066,48.884,15.994,53.979,17.224,73.017z"/>
		
			<linearGradient id="SVGID_30_" gradientUnits="userSpaceOnUse" x1="-1853.251" y1="1882.2461" x2="-1868.9165" y2="1856.7338" gradientTransform="matrix(0.9897 -0.0801 -0.0949 -1.1727 2039.688 2103.7158)">
			<stop  offset="0.0562" style="stop-color:#DE7210"/>
			<stop  offset="1" style="stop-color:#F2C06E"/>
		</linearGradient>
		<path fill="url(#SVGID_30_)" d="M16.36,60.42c0,0,4.397-13.96,13.286-13.842c5.895,0.079,1.219-4.981-0.564-5.75
			c-1.86-0.797-2.306-0.766-2.74-0.381C25.69,41.023,19.842,40.801,16.36,60.42z"/>
		
			<linearGradient id="SVGID_31_" gradientUnits="userSpaceOnUse" x1="-1773.8301" y1="1821.9023" x2="-1790.4734" y2="1818.7233" gradientTransform="matrix(1 0 0 -1 1854 1892.2188)">
			<stop  offset="0.0047" style="stop-color:#FFFAEE"/>
			<stop  offset="0.2757" style="stop-color:#F5F89B"/>
			<stop  offset="0.3102" style="stop-color:#F3ED91"/>
			<stop  offset="0.4668" style="stop-color:#ECC267"/>
			<stop  offset="0.6182" style="stop-color:#E6A046"/>
			<stop  offset="0.7611" style="stop-color:#E2872E"/>
			<stop  offset="0.8921" style="stop-color:#E07820"/>
			<stop  offset="1" style="stop-color:#DF731B"/>
		</linearGradient>
		<path fill="url(#SVGID_31_)" d="M76.317,74.085c0.668-0.656,0.203-3.17-3.998-4.694c-3.812-1.385-9.761,2.136-11.527,2.83
			c0,0,6.74-1.262,9.265-0.841C73.483,71.95,74.686,75.684,76.317,74.085z"/>
		
			<linearGradient id="SVGID_32_" gradientUnits="userSpaceOnUse" x1="-2212.8398" y1="1491.2021" x2="-2212.8398" y2="1452.4766" gradientTransform="matrix(0.992 0.1261 0.1261 -0.992 2033.8569 1805.9783)">
			<stop  offset="0.0562" style="stop-color:#DE7210"/>
			<stop  offset="1" style="stop-color:#F2C06E"/>
		</linearGradient>
		<path fill="url(#SVGID_32_)" d="M22.852,69.485c0,0-0.73-13.725,5.421-19.586c4.829-4.604,0.868-2.643-1.172-2.212
			c-2.152,0.457-3.139,1.93-2.782,1.389c0.016-0.022,0.019-0.035,0.016-0.04C24.25,48.961,19.771,53.841,22.852,69.485z"/>
		
			<linearGradient id="SVGID_33_" gradientUnits="userSpaceOnUse" x1="-2150.8813" y1="1574.8418" x2="-2150.8813" y2="1536.1237" gradientTransform="matrix(0.9324 0.3616 0.3616 -0.9324 1463.1855 2291.0352)">
			<stop  offset="0.0562" style="stop-color:#DE7210"/>
			<stop  offset="1" style="stop-color:#F2C06E"/>
		</linearGradient>
		<path fill="url(#SVGID_33_)" d="M18.114,65.125c0,0,2.599-13.496,9.982-17.702c5.796-3.304,1.48-2.355-0.604-2.429
			c-2.199-0.075-3.511,1.117-3.036,0.677c0.02-0.018,0.027-0.03,0.024-0.034C24.419,45.544,18.896,49.201,18.114,65.125z"/>
		
			<linearGradient id="SVGID_34_" gradientUnits="userSpaceOnUse" x1="-2073.1724" y1="1748.8848" x2="-2083.9558" y2="1732.7096" gradientTransform="matrix(0.8104 -0.5859 -0.5859 -0.8104 2731.7095 264.4888)">
			<stop  offset="0.0562" style="stop-color:#DE7210"/>
			<stop  offset="1" style="stop-color:#F2C072"/>
		</linearGradient>
		<path fill="url(#SVGID_34_)" d="M26.88,70.665c0,0-1.421-8.18,1.642-12.207c2.444-3.213,0.297-1.641-0.837-1.178
			c-1.184,0.484-1.633,1.438-1.471,1.088C26.37,58.026,20.945,62.229,26.88,70.665z"/>
		
			<linearGradient id="SVGID_35_" gradientUnits="userSpaceOnUse" x1="-2067.3359" y1="1754.1826" x2="-2078.1184" y2="1738.009" gradientTransform="matrix(0.8104 -0.5859 -0.5859 -0.8104 2731.7095 264.4888)">
			<stop  offset="0.0562" style="stop-color:#DE7210"/>
			<stop  offset="1" style="stop-color:#F2C072"/>
		</linearGradient>
		<path fill="url(#SVGID_35_)" d="M28.504,62.951c0,0-1.421-8.18,1.642-12.207c2.444-3.213,0.297-1.642-0.837-1.178
			c-1.184,0.483-1.633,1.438-1.471,1.088C27.994,50.312,22.569,54.516,28.504,62.951z"/>
		
			<linearGradient id="SVGID_36_" gradientUnits="userSpaceOnUse" x1="-1829.5474" y1="1846.248" x2="-1834.265" y2="1837.4419" gradientTransform="matrix(1 0 0 -1 1854 1892.2188)">
			<stop  offset="0.0562" style="stop-color:#DE7210"/>
			<stop  offset="1" style="stop-color:#EED8A5"/>
		</linearGradient>
		<path fill="url(#SVGID_36_)" d="M19.915,51.768c0,0,3.319-6.8,7.73-8.139c3.521-1.068,1.096-1.052,0.011-1.317
			c-1.133-0.274-1.974,0.19-1.668,0.018C26.288,42.161,20.036,42.369,19.915,51.768z"/>
		
			<linearGradient id="SVGID_37_" gradientUnits="userSpaceOnUse" x1="-1830.021" y1="1840.8652" x2="-1834.7386" y2="1832.0594" gradientTransform="matrix(1 0 0 -1 1854 1892.2188)">
			<stop  offset="0.0562" style="stop-color:#DE7210"/>
			<stop  offset="1" style="stop-color:#EED8A5"/>
		</linearGradient>
		<path fill="url(#SVGID_37_)" d="M19.441,57.15c0,0,3.318-6.801,7.73-8.14c3.521-1.068,1.096-1.052,0.011-1.317
			c-1.133-0.274-1.974,0.189-1.667,0.018C25.813,47.542,19.562,47.75,19.441,57.15z"/>
		
			<linearGradient id="SVGID_38_" gradientUnits="userSpaceOnUse" x1="-1824.6753" y1="1844.6045" x2="-1829.2352" y2="1833.283" gradientTransform="matrix(1 0 0 -1 1854 1892.2188)">
			<stop  offset="0.0562" style="stop-color:#DE7210"/>
			<stop  offset="1" style="stop-color:#F2C072"/>
		</linearGradient>
		<path fill="url(#SVGID_38_)" d="M21.85,55.666c0,0,5.854-11.997,13.637-14.359c6.212-1.884,1.935-1.857,0.02-2.323
			c-2-0.484-3.482,0.336-2.943,0.032C33.092,38.717,22.065,39.084,21.85,55.666z"/>
		
			<linearGradient id="SVGID_39_" gradientUnits="userSpaceOnUse" x1="-1822.9443" y1="1850.1123" x2="-1833.7274" y2="1833.9379" gradientTransform="matrix(1 0 0 -1 1854 1892.2188)">
			<stop  offset="0.0562" style="stop-color:#DE7210"/>
			<stop  offset="1" style="stop-color:#F2C072"/>
		</linearGradient>
		<path fill="url(#SVGID_39_)" d="M25.852,49.204c0,0,3.641-7.461,8.481-8.931c3.864-1.171,1.203-1.155,0.012-1.444
			c-1.244-0.301-2.166,0.208-1.83,0.019C32.843,38.663,25.985,38.891,25.852,49.204z"/>
		
			<linearGradient id="SVGID_40_" gradientUnits="userSpaceOnUse" x1="-1822.2163" y1="1846.8477" x2="-1832.0426" y2="1832.1082" gradientTransform="matrix(1 0 0 -1 1854 1892.2188)">
			<stop  offset="0.0562" style="stop-color:#DE7210"/>
			<stop  offset="1" style="stop-color:#F2C072"/>
		</linearGradient>
		<path fill="url(#SVGID_40_)" d="M27.039,51.84c0,0,3.319-6.8,7.73-8.139c3.521-1.068,1.096-1.053,0.012-1.317
			c-1.134-0.275-1.974,0.189-1.668,0.018C33.411,42.232,27.16,42.441,27.039,51.84z"/>
		
			<linearGradient id="SVGID_41_" gradientUnits="userSpaceOnUse" x1="-1790.5928" y1="1849.1445" x2="-1789.8142" y2="1847.7572" gradientTransform="matrix(1 0 0 -1 1854 1892.2188)">
			<stop  offset="0" style="stop-color:#8B8B89"/>
			<stop  offset="1" style="stop-color:#120500"/>
		</linearGradient>
		<path fill="url(#SVGID_41_)" d="M65.078,43.542c-0.038-0.709-0.143-0.94-3.537-0.998c0.389,0.176,1.059,0.529,1.797,1.135
			c0.975,0.799,1.134,1.69,1.234,2.612C64.903,45.662,65.145,44.796,65.078,43.542z"/>
		
			<linearGradient id="SVGID_42_" gradientUnits="userSpaceOnUse" x1="-1821.2285" y1="1853.8584" x2="-1821.2285" y2="1858.1189" gradientTransform="matrix(1 0 0 -1 1854 1892.2188)">
			<stop  offset="0.0562" style="stop-color:#DE7210"/>
			<stop  offset="1" style="stop-color:#F6C08F"/>
		</linearGradient>
		<path fill="url(#SVGID_42_)" d="M45.149,34.068l-2.944,4.737c0,0-11.771-1.846-21.75,7.808
			C19.631,47.411,26.983,29.542,45.149,34.068z"/>
		
			<linearGradient id="SVGID_43_" gradientUnits="userSpaceOnUse" x1="-1807.4204" y1="1858.8828" x2="-1798.5038" y2="1869.303" gradientTransform="matrix(0.9992 0.0398 0.0398 -0.9992 1764.802 1972.4143)">
			<stop  offset="0.0562" style="stop-color:#DE7210"/>
			<stop  offset="1" style="stop-color:#F6C08F"/>
		</linearGradient>
		<path fill="url(#SVGID_43_)" d="M34.579,42.546c0,0,3.137-5.824,7.205-7.583C39.681,35.029,34.959,36.673,34.579,42.546z"/>
		
			<linearGradient id="SVGID_44_" gradientUnits="userSpaceOnUse" x1="-1826.9536" y1="1849.7852" x2="-1831.6711" y2="1840.9794" gradientTransform="matrix(1 0 0 -1 1854 1892.2188)">
			<stop  offset="0.0562" style="stop-color:#DE7210"/>
			<stop  offset="1" style="stop-color:#EED8A5"/>
		</linearGradient>
		<path fill="url(#SVGID_44_)" d="M22.509,48.23c0,0,3.319-6.801,7.73-8.14c3.521-1.068,1.096-1.052,0.012-1.317
			c-1.134-0.274-1.974,0.19-1.668,0.018C28.882,38.623,22.63,38.831,22.509,48.23z"/>
		
			<linearGradient id="SVGID_45_" gradientUnits="userSpaceOnUse" x1="-1792.2588" y1="1875.6924" x2="-1783.547" y2="1885.873" gradientTransform="matrix(0.9946 0.1039 0.1039 -0.9946 1615.3982 2095.6292)">
			<stop  offset="0.0562" style="stop-color:#DE7210"/>
			<stop  offset="1" style="stop-color:#F6C08F"/>
		</linearGradient>
		<path fill="url(#SVGID_45_)" d="M29.461,43.438c0,0,3.424-5.482,7.499-6.941C34.908,36.43,30.202,37.736,29.461,43.438z"/>
		
			<linearGradient id="SVGID_46_" gradientUnits="userSpaceOnUse" x1="-1798.7739" y1="1882.252" x2="-1788.3103" y2="1880.819" gradientTransform="matrix(0.9959 0.0903 0.0903 -0.9959 1646.9268 2069.7646)">
			<stop  offset="0.0562" style="stop-color:#DE7210"/>
			<stop  offset="1" style="stop-color:#F6C08F"/>
		</linearGradient>
		<path fill="url(#SVGID_46_)" d="M35.332,34.075c0,0-2.582,1.128-7.135-0.765l4.06,2.041L35.332,34.075z"/>
		
			<linearGradient id="SVGID_47_" gradientUnits="userSpaceOnUse" x1="-1833.8755" y1="1858.2285" x2="-1819.1013" y2="1856.2052" gradientTransform="matrix(1 0 0 -1 1854 1892.2188)">
			<stop  offset="0.0562" style="stop-color:#DE7210"/>
			<stop  offset="1" style="stop-color:#F6C08F"/>
		</linearGradient>
		<path fill="url(#SVGID_47_)" d="M34.084,34.798c0,0-3.441,1.333-10.063-0.651l5.665,2.254
			C30.386,35.753,34.084,34.798,34.084,34.798z"/>
		
			<linearGradient id="SVGID_48_" gradientUnits="userSpaceOnUse" x1="-1796.7358" y1="1882.7803" x2="-1787.1196" y2="1881.4633" gradientTransform="matrix(0.9959 0.0903 0.0903 -0.9959 1646.9268 2069.7646)">
			<stop  offset="0.0562" style="stop-color:#DE7210"/>
			<stop  offset="1" style="stop-color:#F6C08F"/>
		</linearGradient>
		<path fill="url(#SVGID_48_)" d="M36.596,33.706c0,0-2.284,0.695-6.503-0.937l4.059,2.041
			C34.581,34.43,36.596,33.706,36.596,33.706z"/>
		
			<linearGradient id="SVGID_49_" gradientUnits="userSpaceOnUse" x1="-1827.2026" y1="1855.1182" x2="-1835.8759" y2="1856.0084" gradientTransform="matrix(1 0 0 -1 1854 1892.2188)">
			<stop  offset="0.0562" style="stop-color:#DE7210"/>
			<stop  offset="1" style="stop-color:#F6C08F"/>
		</linearGradient>
		<path fill="url(#SVGID_49_)" d="M29.473,36.332c0,0-1.697,1.409-6.044,1.466l3.76,0.123L29.473,36.332z"/>
		
			<linearGradient id="SVGID_50_" gradientUnits="userSpaceOnUse" x1="-1796.6382" y1="1874.6416" x2="-1784.6416" y2="1888.661" gradientTransform="matrix(0.9946 0.1039 0.1039 -0.9946 1615.3982 2095.6292)">
			<stop  offset="0.0562" style="stop-color:#DE7210"/>
			<stop  offset="1" style="stop-color:#F6C08F"/>
		</linearGradient>
		<path fill="url(#SVGID_50_)" d="M25.344,43.541c0,0,5.808-7.566,10.592-9.279C33.526,34.182,26.212,36.848,25.344,43.541z"/>
	</g>
	<g id="Fire">
		
			<linearGradient id="SVGID_51_" gradientUnits="userSpaceOnUse" x1="-1767.8203" y1="1781.6875" x2="-1744.325" y2="1817.9261" gradientTransform="matrix(1 0 0 -1 1854 1892.2188)">
			<stop  offset="0" style="stop-color:#DE5C01"/>
			<stop  offset="0.736" style="stop-color:#FEFD00"/>
			<stop  offset="0.7783" style="stop-color:#FEFE26"/>
			<stop  offset="0.8369" style="stop-color:#FFFE54"/>
			<stop  offset="0.889" style="stop-color:#FFFF76"/>
			<stop  offset="0.932" style="stop-color:#FFFF8B"/>
			<stop  offset="0.9607" style="stop-color:#FFFF92"/>
		</linearGradient>
		<path fill="url(#SVGID_51_)" d="M115.305,56.442c0,0,0.625,14.038-18.875,33.54c-2.168,2.166-13.934,13.19-13.52,16.497
			C83.055,107.648,113.784,101.766,115.305,56.442z"/>
		
			<linearGradient id="SVGID_52_" gradientUnits="userSpaceOnUse" x1="-1754.1567" y1="1858.5293" x2="-1769.5413" y2="1865.286" gradientTransform="matrix(1 0 0 -1 1854 1892.2188)">
			<stop  offset="0" style="stop-color:#F79A09"/>
			<stop  offset="0.736" style="stop-color:#FEFD00"/>
			<stop  offset="0.7783" style="stop-color:#FEFE26"/>
			<stop  offset="0.8369" style="stop-color:#FFFE54"/>
			<stop  offset="0.889" style="stop-color:#FFFF76"/>
			<stop  offset="0.932" style="stop-color:#FFFF8B"/>
			<stop  offset="0.9607" style="stop-color:#FFFF92"/>
		</linearGradient>
		<path fill="url(#SVGID_52_)" d="M77.499,23.423c23.488,1.805,28.037,18.694,28.039,17.66
			C105.596,24.664,83.252,23.417,77.499,23.423z"/>
		
			<linearGradient id="SVGID_53_" gradientUnits="userSpaceOnUse" x1="-1743.8247" y1="1843.1094" x2="-1765.3608" y2="1863.1028" gradientTransform="matrix(1 0 0 -1 1854 1892.2188)">
			<stop  offset="0" style="stop-color:#DE5C01"/>
			<stop  offset="0.736" style="stop-color:#FEFD00"/>
			<stop  offset="0.7783" style="stop-color:#FEFE26"/>
			<stop  offset="0.8369" style="stop-color:#FFFE54"/>
			<stop  offset="0.889" style="stop-color:#FFFF76"/>
			<stop  offset="0.932" style="stop-color:#FFFF8B"/>
			<stop  offset="0.9607" style="stop-color:#FFFF92"/>
		</linearGradient>
		<path fill="url(#SVGID_53_)" d="M84.653,29.844c0,0,16.281,3.328,20.875,20.587c0.609,2.286-1.961-14.021-1.168-12.473
			C105.151,39.514,97.805,30.359,84.653,29.844z"/>
		
			<linearGradient id="SVGID_54_" gradientUnits="userSpaceOnUse" x1="-1868.7524" y1="1732.7725" x2="-1877.7703" y2="1742.0991" gradientTransform="matrix(0.9996 -0.0282 -0.0282 -0.9996 2020.6597 1727.6785)">
			<stop  offset="0" style="stop-color:#F79A09"/>
			<stop  offset="0.736" style="stop-color:#FEFD00"/>
			<stop  offset="0.7783" style="stop-color:#FEFE26"/>
			<stop  offset="0.8369" style="stop-color:#FFFE54"/>
			<stop  offset="0.889" style="stop-color:#FFFF76"/>
			<stop  offset="0.932" style="stop-color:#FFFF8B"/>
			<stop  offset="0.9607" style="stop-color:#FFFF92"/>
		</linearGradient>
		<path fill="url(#SVGID_54_)" d="M91.159,29.421c0,0,14.707,3.065,14.854,26.398c0.102,16.515,2.549,6.199,4.979,2.487
			c2.092-3.206,0.662-7.113,0.611-7.103c-0.008,0.002-1.059-3.04-0.35-1.75c0.031,0.056-0.988-0.84-0.98-0.84
			C110.434,48.588,109.706,31.843,91.159,29.421z"/>
		
			<linearGradient id="SVGID_55_" gradientUnits="userSpaceOnUse" x1="-1747.4351" y1="1831.6562" x2="-1742.3596" y2="1849.1158" gradientTransform="matrix(1 0 0 -1 1854 1892.2188)">
			<stop  offset="0" style="stop-color:#F79A09"/>
			<stop  offset="0.736" style="stop-color:#FEFD00"/>
			<stop  offset="0.7783" style="stop-color:#FEFE26"/>
			<stop  offset="0.8369" style="stop-color:#FFFE54"/>
			<stop  offset="0.889" style="stop-color:#FFFF76"/>
			<stop  offset="0.932" style="stop-color:#FFFF8B"/>
			<stop  offset="0.9607" style="stop-color:#FFFF92"/>
		</linearGradient>
		<path fill="url(#SVGID_55_)" d="M107.719,32.583c0,0,5.281,13.76-0.316,20.602c-1.828,2.233-2.031,13.673,0.201,12.623
			c2.238-1.053,1.75,6.075,1.457,6.886c-0.006,0.016-0.008,0.022-0.004,0.025C109.204,72.808,120.094,55.13,107.719,32.583z"/>
		
			<linearGradient id="SVGID_56_" gradientUnits="userSpaceOnUse" x1="-1925.9922" y1="1666.3418" x2="-1926.1774" y2="1679.6206" gradientTransform="matrix(0.9992 -0.0412 -0.0412 -0.9992 2095.855 1650.2959)">
			<stop  offset="0" style="stop-color:#F79A09"/>
			<stop  offset="0.736" style="stop-color:#FEFD00"/>
			<stop  offset="0.7783" style="stop-color:#FEFE26"/>
			<stop  offset="0.8369" style="stop-color:#FFFE54"/>
			<stop  offset="0.889" style="stop-color:#FFFF76"/>
			<stop  offset="0.932" style="stop-color:#FFFF8B"/>
			<stop  offset="0.9607" style="stop-color:#FFFF92"/>
		</linearGradient>
		<path fill="url(#SVGID_56_)" d="M100.375,47.068c0,0,3.326,9.735-0.156,16.695l2.635,5.883
			C104.786,64.9,107.245,54.865,100.375,47.068z"/>
		
			<linearGradient id="SVGID_57_" gradientUnits="userSpaceOnUse" x1="-2056.2832" y1="1543.3213" x2="-2047.1359" y2="1561.3386" gradientTransform="matrix(0.9975 -0.0707 -0.0707 -0.9975 2260.6123 1470.2026)">
			<stop  offset="0" style="stop-color:#F79A09"/>
			<stop  offset="0.736" style="stop-color:#FEFD00"/>
			<stop  offset="0.7783" style="stop-color:#FEFE26"/>
			<stop  offset="0.8369" style="stop-color:#FFFE54"/>
			<stop  offset="0.889" style="stop-color:#FFFF76"/>
			<stop  offset="0.932" style="stop-color:#FFFF8B"/>
			<stop  offset="0.9607" style="stop-color:#FFFF92"/>
		</linearGradient>
		<path fill="url(#SVGID_57_)" d="M106.223,45.91c0,0,2.301,15.453-5.998,29.401c0.129,3.226-0.438,6.146-1.215,8.552
			c0.363,0.477,0.846,0.802,1.484,0.858c-0.281,0.26-0.562,0.504-0.834,0.734c-0.498,0.22-1.008,0.453-1.502,0.692
			c-0.107,0.246-0.213,0.484-0.316,0.714c0.553-0.388,1.168-0.857,1.818-1.405c1.695-0.749,3.219-1.33,3.217-1.334
			c0,0-0.312,0.116-1.059,0.389c-0.502,0.183-0.941,0.244-1.324,0.21C106.903,78.882,115.682,65.822,106.223,45.91z M96.555,86.989
			c-0.732,0.43-1.266,0.833-1.379,1.144c-0.084,0.227,0.416,0.096,1.279-0.389C96.5,87.485,96.538,87.23,96.555,86.989z"/>
		
			<linearGradient id="SVGID_58_" gradientUnits="userSpaceOnUse" x1="-1781.9277" y1="1791.0977" x2="-1780.6975" y2="1811.0543" gradientTransform="matrix(0.9975 -0.0707 -0.0707 -0.9975 1995.0449 1752.3237)">
			<stop  offset="0" style="stop-color:#DE5C01"/>
			<stop  offset="0.736" style="stop-color:#FEFD00"/>
			<stop  offset="0.7783" style="stop-color:#FEFE26"/>
			<stop  offset="0.8369" style="stop-color:#FFFE54"/>
			<stop  offset="0.889" style="stop-color:#FFFF76"/>
			<stop  offset="0.932" style="stop-color:#FFFF8B"/>
			<stop  offset="0.9607" style="stop-color:#FFFF92"/>
		</linearGradient>
		<path fill="url(#SVGID_58_)" d="M95.991,62.375c0,0,6.541,18.621-14.367,36.08c-1.234,1.029,8.486,0.589,9.338,0.202
			c2.506-1.139,5.467-8.734,5.117-7.824C95.731,91.739,105.788,77.404,95.991,62.375z"/>
		
			<linearGradient id="SVGID_59_" gradientUnits="userSpaceOnUse" x1="-1792.1499" y1="1784.5381" x2="-1753.5747" y2="1807.5945" gradientTransform="matrix(1 0 0 -1 1854 1892.2188)">
			<stop  offset="0" style="stop-color:#B9120D"/>
			<stop  offset="0.078" style="stop-color:#BB180D"/>
			<stop  offset="0.1822" style="stop-color:#C0290C"/>
			<stop  offset="0.3013" style="stop-color:#C8450A"/>
			<stop  offset="0.4314" style="stop-color:#D36C08"/>
			<stop  offset="0.5706" style="stop-color:#E29E05"/>
			<stop  offset="0.7151" style="stop-color:#F4DA02"/>
			<stop  offset="0.7921" style="stop-color:#FEFD00"/>
			<stop  offset="0.8136" style="stop-color:#FEFD07"/>
			<stop  offset="0.8455" style="stop-color:#FEFD1B"/>
			<stop  offset="0.8837" style="stop-color:#FEFE3C"/>
			<stop  offset="0.9268" style="stop-color:#FFFE69"/>
			<stop  offset="0.9736" style="stop-color:#FFFFA3"/>
			<stop  offset="1" style="stop-color:#FFFFC7"/>
		</linearGradient>
		<path fill="url(#SVGID_59_)" d="M105.139,74.186c0,0-3.947,24.151-31.23,26.095c-10.684,0.763-26.024-1.738-24.666,2.337
			c0.422,1.263,2.43,6.53,7.013,7.753C68.66,113.679,101.661,112.596,105.139,74.186z"/>
	</g>
	<g id="Layer_6">
		
			<linearGradient id="SVGID_60_" gradientUnits="userSpaceOnUse" x1="-1764.2471" y1="1826.459" x2="-1724.7299" y2="1821.1051" gradientTransform="matrix(0.9951 0.0989 0.0989 -0.9951 1634.1636 2082.2578)">
			<stop  offset="0.0562" style="stop-color:#DE7210"/>
			<stop  offset="1" style="stop-color:#F6C08F"/>
		</linearGradient>
		<path fill="url(#SVGID_60_)" d="M82.383,92.463c0,0-16.693,3.814-27.508-5.393c-9.896-8.426-4.987-1.334-3.645,2.163
			c1.379,3.588-6.376,0.848-7.542,0.27C42.526,88.934,62.058,101.184,82.383,92.463z"/>
		
			<linearGradient id="SVGID_61_" gradientUnits="userSpaceOnUse" x1="-1762.7896" y1="1842.916" x2="-1716.9033" y2="1828.4946" gradientTransform="matrix(0.9895 0.1448 0.1448 -0.9895 1524.2542 2166.1172)">
			<stop  offset="0.0562" style="stop-color:#DE7210"/>
			<stop  offset="1" style="stop-color:#F6C08F"/>
		</linearGradient>
		<path fill="url(#SVGID_61_)" d="M71.625,101.562c0,0-19.915-3.914-26.219-17.408c-5.388-11.528-3.962-3.069-4.205,0.78
			c-0.255,3.961-5.839-1.447-6.585-2.388c-0.021-0.023-0.036-0.038-0.038-0.034C34.467,82.585,44.85,98.861,71.625,101.562z"/>
		
			<linearGradient id="SVGID_62_" gradientUnits="userSpaceOnUse" x1="-2508.9351" y1="1224.2227" x2="-2487.116" y2="1182.4491" gradientTransform="matrix(0.9837 -0.1799 -0.1799 -0.9837 2720.9502 835.6824)">
			<stop  offset="0.0562" style="stop-color:#DE7210"/>
			<stop  offset="1" style="stop-color:#F6C08F"/>
		</linearGradient>
		<path fill="url(#SVGID_62_)" d="M49.872,99.816c0,0-9.512-7.366-13.8-17.469c-3.604-1.252-8.396-4.115-8.491-4.604
			C29.104,85.593,37.119,94.759,49.872,99.816z"/>
	</g>
</g>
</svg>
