<?xml version="1.0" encoding="utf-8"?>
<!-- Generator: Adobe Illustrator 15.1.0, SVG Export Plug-In . SVG Version: 6.00 Build 0)  -->
<!DOCTYPE svg PUBLIC "-//W3C//DTD SVG 1.1//EN" "http://www.w3.org/Graphics/SVG/1.1/DTD/svg11.dtd">
<svg version="1.1" id="svg2816" xmlns:svg="http://www.w3.org/2000/svg"
	 xmlns="http://www.w3.org/2000/svg" xmlns:xlink="http://www.w3.org/1999/xlink" x="0px" y="0px" width="100px" height="100px"
	 viewBox="20.633 22.716 100 100" enable-background="new 20.633 22.716 100 100" xml:space="preserve">
<g id="g2826" transform="matrix(1.25,0,0,-1.25,-147.59075,566.66341)">
	<g id="g2914">
		<path id="path2830" fill="#37A5E2" d="M210.219,432.29c-5.638,5.411-17.518,2.903-30.602-5.318
			c-1.344,0.138-2.708,0.217-4.093,0.217c-19.746,0-35.753-14.493-35.753-32.371c0-0.17,0.01-0.337,0.014-0.507
			c8.056,12.79,18.863,21.647,28.688,24.478c-3.154-2.655-6.297-5.592-9.362-8.786c-7.748-8.073-13.834-16.57-17.859-24.412
			c-6.199-12.079-7.489-22.595-2.309-27.567c5.557-5.333,17.18-2.97,30.041,4.973c2.121-0.355,4.304-0.55,6.539-0.55
			c1.602,0,3.177,0.099,4.722,0.284c14.094,1.686,25.595,10.803,29.549,22.863h-23.742c-1.464-4.366-5.58-7.516-10.44-7.516
			c-6.084,0-11.017,4.934-11.017,11.019v1.109h46.313c0.238,1.507,0.366,3.046,0.366,4.612c0,14.145-10.023,26.163-23.988,30.569
			c9.802,5.502,18.16,7.017,22.19,3.151c2.462-2.362,2.98-6.425,1.85-11.513h1.305C214.188,423.68,213.524,429.116,210.219,432.29
			L210.219,432.29z M166.545,363.478c-10.127-5.852-18.809-7.544-22.941-3.578c-3.593,3.448-3.048,10.514,0.723,19.109
			C149.032,371.413,157.015,365.709,166.545,363.478z M164.608,400.455c0.138,5.966,5.007,10.763,11.004,10.763
			c5.999,0,10.868-4.797,11.005-10.763H164.608"/>
		<path id="path2884" fill="#37A5E2" d="M204.6,364.929c-0.601-0.603-1.327-0.904-2.178-0.904c-0.852,0-1.577,0.301-2.175,0.904
			c-0.594,0.599-0.892,1.326-0.892,2.18c0,0.845,0.301,1.567,0.901,2.167c0.598,0.597,1.319,0.895,2.166,0.895
			c0.852,0,1.577-0.298,2.178-0.895c0.6-0.598,0.901-1.32,0.901-2.167C205.501,366.258,205.2,365.531,204.6,364.929z
			 M200.548,368.974c-0.516-0.516-0.773-1.138-0.773-1.869c0-0.737,0.256-1.364,0.769-1.883c0.516-0.519,1.141-0.778,1.878-0.778
			c0.736,0,1.362,0.259,1.877,0.778c0.515,0.519,0.773,1.146,0.773,1.883c0,0.73-0.258,1.353-0.773,1.869
			c-0.519,0.52-1.145,0.778-1.877,0.778C201.69,369.752,201.065,369.494,200.548,368.974z M202.366,368.807
			c0.42,0,0.727-0.041,0.923-0.123c0.35-0.145,0.525-0.431,0.525-0.856c0-0.302-0.11-0.525-0.33-0.668
			c-0.117-0.077-0.281-0.13-0.49-0.165c0.266-0.041,0.459-0.15,0.583-0.329c0.122-0.177,0.184-0.351,0.184-0.521v-0.245
			c0-0.078,0.002-0.162,0.007-0.251c0.005-0.088,0.015-0.147,0.027-0.174l0.02-0.041h-0.551c-0.003,0.01-0.006,0.023-0.009,0.034
			c-0.003,0.009-0.005,0.023-0.009,0.036l-0.012,0.108v0.266c0,0.387-0.108,0.644-0.322,0.768c-0.127,0.073-0.349,0.109-0.667,0.109
			h-0.473v-1.322h-0.591v3.373H202.366L202.366,368.807z M203.007,368.263c-0.15,0.083-0.391,0.125-0.724,0.125h-0.511v-1.214h0.541
			c0.253,0,0.443,0.024,0.57,0.075c0.234,0.091,0.351,0.266,0.351,0.524C203.234,368.016,203.159,368.179,203.007,368.263"/>
	</g>
</g>
</svg>
