<?xml version="1.0" encoding="utf-8"?>
<!-- Generator: Adobe Illustrator 15.1.0, SVG Export Plug-In . SVG Version: 6.00 Build 0)  -->
<!DOCTYPE svg PUBLIC "-//W3C//DTD SVG 1.1//EN" "http://www.w3.org/Graphics/SVG/1.1/DTD/svg11.dtd">
<svg version="1.1" id="Layer_1" xmlns="http://www.w3.org/2000/svg" xmlns:xlink="http://www.w3.org/1999/xlink" x="0px" y="0px"
	 width="100px" height="100px" viewBox="2110 2110 100 100" enable-background="new 2110 2110 100 100" xml:space="preserve">
<g>
	<ellipse opacity="0.01" fill="#FFFFFF" enable-background="new    " cx="2155.755" cy="2155.898" rx="31.737" ry="44.557"/>
	<g opacity="0.85">
		<defs>
			<filter id="Adobe_OpacityMaskFilter" filterUnits="userSpaceOnUse" x="2125.774" y="2198.161" width="68.746" height="11.839">
				<feColorMatrix  type="matrix" values="1 0 0 0 0  0 1 0 0 0  0 0 1 0 0  0 0 0 1 0"/>
			</filter>
		</defs>
		<mask maskUnits="userSpaceOnUse" x="2125.774" y="2198.161" width="68.746" height="11.839" id="SVGID_1_">
			<g filter="url(#Adobe_OpacityMaskFilter)">
				
					<image overflow="visible" enable-background="new    " width="165" height="33" xlink:href="1119D8D7.jpeg"  transform="matrix(0.4284 0 0 0.4284 2124.8643 2196.8809)">
				</image>
			</g>
		</mask>
		<g mask="url(#SVGID_1_)">
			
				<linearGradient id="SVGID_2_" gradientUnits="userSpaceOnUse" x1="18.6118" y1="4294.8018" x2="18.6118" y2="4294.1006" gradientTransform="matrix(16.875 0 0 -16.875 1846.0625 74672.9375)">
				<stop  offset="0" style="stop-color:#000000;stop-opacity:0"/>
				<stop  offset="1" style="stop-color:#000000"/>
			</linearGradient>
			<path fill="url(#SVGID_2_)" d="M2125.775,2204.525c0-3.239,15.142-6.364,34.143-6.364c18.999,0,34.602,3.125,34.602,6.364
				c0,2.971-13.928,5.475-34.602,5.475C2139.242,2210,2125.774,2207.274,2125.775,2204.525L2125.775,2204.525z"/>
		</g>
	</g>
	<g opacity="0.85">
		<defs>
			
				<filter id="Adobe_OpacityMaskFilter_1_" filterUnits="userSpaceOnUse" x="2134.712" y="2198.161" width="50.868" height="11.839">
				<feColorMatrix  type="matrix" values="1 0 0 0 0  0 1 0 0 0  0 0 1 0 0  0 0 0 1 0"/>
			</filter>
		</defs>
		<mask maskUnits="userSpaceOnUse" x="2134.712" y="2198.161" width="50.868" height="11.839" id="SVGID_3_">
			<g filter="url(#Adobe_OpacityMaskFilter_1_)">
				
					<image overflow="visible" enable-background="new    " width="124" height="33" xlink:href="1119D8D5.jpeg"  transform="matrix(0.4284 0 0 0.4284 2133.4326 2196.8809)">
				</image>
			</g>
		</mask>
		<g mask="url(#SVGID_3_)">
			
				<linearGradient id="SVGID_4_" gradientUnits="userSpaceOnUse" x1="18.6118" y1="4294.8018" x2="18.6118" y2="4294.1006" gradientTransform="matrix(16.875 0 0 -16.875 1846.0625 74672.9375)">
				<stop  offset="0" style="stop-color:#000000;stop-opacity:0"/>
				<stop  offset="1" style="stop-color:#000000"/>
			</linearGradient>
			<path fill="url(#SVGID_4_)" d="M2134.714,2204.525c0-3.239,11.204-6.364,25.262-6.364c14.059,0,25.604,3.125,25.604,6.364
				c0,2.971-10.307,5.475-25.604,5.475c-15.299,0-25.264-2.726-25.264-5.476L2134.714,2204.525z"/>
		</g>
	</g>
	
		<linearGradient id="SVGID_5_" gradientUnits="userSpaceOnUse" x1="18.1123" y1="4299.9355" x2="19.1282" y2="4294.1738" gradientTransform="matrix(16.875 0 0 -16.875 1846.0625 74672.9375)">
		<stop  offset="0" style="stop-color:#FF8C8F"/>
		<stop  offset="0.3804" style="stop-color:#F21818"/>
		<stop  offset="0.4461" style="stop-color:#E51515"/>
		<stop  offset="0.5683" style="stop-color:#C20E0E"/>
		<stop  offset="0.7324" style="stop-color:#8A0202"/>
		<stop  offset="0.7607" style="stop-color:#800000"/>
	</linearGradient>
	<path fill="url(#SVGID_5_)" d="M2159.815,2199.422c16.321,0,17.792-24.721,17.792-41.354c0-19.146-2.865-40.032-17.792-40.032
		c-14.923,0-17.423,22.206-17.423,40.032c-0.002,16.481,1.335,41.356,17.423,41.356V2199.422z M2159.811,2110
		c26.72,0,46.716,19.324,46.716,48.893c0,26.109-18.943,49.81-46.712,49.81c-27.5,0-46.343-23.706-46.343-49.81
		C2113.472,2129.558,2132.849,2110,2159.811,2110L2159.811,2110z"/>
	
		<linearGradient id="SVGID_6_" gradientUnits="userSpaceOnUse" x1="18.5972" y1="4294.8086" x2="18.5972" y2="4294.2354" gradientTransform="matrix(16.875 0 0 -16.875 1846.0625 74672.9375)">
		<stop  offset="0" style="stop-color:#FF444C;stop-opacity:0"/>
		<stop  offset="0.2367" style="stop-color:#FF393F;stop-opacity:0.2367"/>
		<stop  offset="0.6708" style="stop-color:#FF1B1E;stop-opacity:0.6708"/>
		<stop  offset="1" style="stop-color:#FF0000"/>
	</linearGradient>
	<path opacity="0.5" fill="url(#SVGID_6_)" enable-background="new    " d="M2187.41,2198.008c-6.949,6.135-16.123,9.62-27.595,9.62
		c-11.369,0-20.497-3.485-27.429-9.62l23.518-0.056c1.206,0.333,2.507,0.507,3.911,0.507c1.424,0,2.741-0.115,3.962-0.448h23.631
		L2187.41,2198.008z"/>
	
		<linearGradient id="SVGID_7_" gradientUnits="userSpaceOnUse" x1="18.5767" y1="4294.7852" x2="18.6367" y2="4299.6978" gradientTransform="matrix(16.875 0 0 -16.875 1846.0625 74672.9375)">
		<stop  offset="0" style="stop-color:#E60000"/>
		<stop  offset="0.3568" style="stop-color:#DC0B0A"/>
		<stop  offset="0.9811" style="stop-color:#C02825"/>
		<stop  offset="1" style="stop-color:#BF2926"/>
	</linearGradient>
	<path opacity="0.8" fill="url(#SVGID_7_)" enable-background="new    " d="M2159.807,2198.214c-16.637,0-17.33-23.632-17.33-40.198
		c0-19.434,1.881-38.099,17.33-38.099c15.451,0,17.8,18.899,17.8,38.079C2177.604,2174.594,2176.678,2198.213,2159.807,2198.214
		L2159.807,2198.214z M2159.811,2117.459c-18.172,0-19.989,24.267-19.989,40.545c0,18.429,3.625,42.363,19.989,42.363
		c17.431,0,20.486-23.968,20.486-42.363C2180.297,2141.985,2178.359,2117.458,2159.811,2117.459L2159.811,2117.459z"/>
	
		<linearGradient id="SVGID_8_" gradientUnits="userSpaceOnUse" x1="18.6108" y1="4294.8223" x2="18.6108" y2="4299.6592" gradientTransform="matrix(16.875 0 0 -16.875 1846.0625 74672.9375)">
		<stop  offset="0" style="stop-color:#B80000"/>
		<stop  offset="1" style="stop-color:#990000"/>
	</linearGradient>
	<path fill="url(#SVGID_8_)" d="M2159.815,2197.623c-16.077,0-16.718-23.252-16.718-39.548c0-19.121,1.79-37.453,16.718-37.453
		c14.931,0,17.185,18.564,17.185,37.433c-0.006,16.324-0.879,39.566-17.186,39.566L2159.815,2197.623z M2159.82,2118.123
		c-17.893,0-19.164,24.059-19.164,39.94c0,18.13,3.02,41.678,19.164,41.678c16.844,0,19.77-23.581,19.77-41.678
		c0-15.625-1.848-39.941-19.769-39.941L2159.82,2118.123z"/>
	<g opacity="0.5">
		<defs>
			<filter id="Adobe_OpacityMaskFilter_2_" filterUnits="userSpaceOnUse" x="2142.337" y="2119.99" width="35.442" height="37.652">
				<feColorMatrix  type="matrix" values="1 0 0 0 0  0 1 0 0 0  0 0 1 0 0  0 0 0 1 0"/>
			</filter>
		</defs>
		<mask maskUnits="userSpaceOnUse" x="2142.337" y="2119.99" width="35.442" height="37.652" id="SVGID_9_">
			<g filter="url(#Adobe_OpacityMaskFilter_2_)">
				
					<image overflow="visible" enable-background="new    " width="88" height="93" xlink:href="1119D8DB.jpeg"  transform="matrix(0.4284 0 0 0.4284 2141.1445 2118.9072)">
				</image>
			</g>
		</mask>
		<g mask="url(#SVGID_9_)">
			
				<linearGradient id="SVGID_10_" gradientUnits="userSpaceOnUse" x1="18.6069" y1="4297.2559" x2="18.6069" y2="4299.4863" gradientTransform="matrix(16.875 0 0 -16.875 1846.0625 74672.9375)">
				<stop  offset="0" style="stop-color:#CF0000;stop-opacity:0"/>
				<stop  offset="0.1308" style="stop-color:#BF0000;stop-opacity:0.1308"/>
				<stop  offset="0.5151" style="stop-color:#960000;stop-opacity:0.5151"/>
				<stop  offset="0.8181" style="stop-color:#7C0000;stop-opacity:0.8181"/>
				<stop  offset="1" style="stop-color:#730000"/>
			</linearGradient>
			<path fill="url(#SVGID_10_)" d="M2142.337,2157.642c0-17.113,2.292-37.016,17.476-37.016c15.185,0,17.966,20.785,17.966,36.747
				c0-14.417-1.955-37.382-17.943-37.382c-15.954-0.002-17.496,22.983-17.496,37.652H2142.337z"/>
		</g>
	</g>
	<g opacity="0.15">
		<defs>
			
				<filter id="Adobe_OpacityMaskFilter_3_" filterUnits="userSpaceOnUse" x="2142.895" y="2160.701" width="34.242" height="37.644">
				<feColorMatrix  type="matrix" values="1 0 0 0 0  0 1 0 0 0  0 0 1 0 0  0 0 0 1 0"/>
			</filter>
		</defs>
		<mask maskUnits="userSpaceOnUse" x="2142.895" y="2160.701" width="34.242" height="37.644" id="SVGID_11_">
			<g filter="url(#Adobe_OpacityMaskFilter_3_)">
				
					<image overflow="visible" enable-background="new    " width="85" height="93" xlink:href="1119D8DD.jpeg"  transform="matrix(0.4284 0 0 0.4284 2142.0015 2159.6084)">
				</image>
			</g>
		</mask>
		<g mask="url(#SVGID_11_)">
			
				<linearGradient id="SVGID_12_" gradientUnits="userSpaceOnUse" x1="18.604" y1="4294.8438" x2="18.604" y2="4297.0742" gradientTransform="matrix(16.875 0 0 -16.875 1846.0625 74672.9375)">
				<stop  offset="0" style="stop-color:#730000"/>
				<stop  offset="0.1819" style="stop-color:#7C0000;stop-opacity:0.8181"/>
				<stop  offset="0.4849" style="stop-color:#960000;stop-opacity:0.5151"/>
				<stop  offset="0.8692" style="stop-color:#BF0000;stop-opacity:0.1308"/>
				<stop  offset="1" style="stop-color:#CF0000;stop-opacity:0"/>
			</linearGradient>
			<path fill="url(#SVGID_12_)" d="M2177.137,2160.701c0,17.113-2.516,37.008-17.205,37.008c-14.69,0-17.038-19.693-17.038-36.738
				c0,15.503,1.548,37.374,17.015,37.374c15.44,0.004,17.227-22.978,17.227-37.642V2160.701z"/>
		</g>
	</g>
	
		<linearGradient id="SVGID_13_" gradientUnits="userSpaceOnUse" x1="15.9209" y1="4295.6855" x2="21.3047" y2="4295.6855" gradientTransform="matrix(16.875 0 0 -16.875 1846.0625 74672.9375)">
		<stop  offset="0" style="stop-color:#E8000F"/>
		<stop  offset="1" style="stop-color:#E0000F"/>
	</linearGradient>
	<path opacity="0.8" fill="url(#SVGID_13_)" enable-background="new    " d="M2114.731,2158.588c0,25.255,17.212,49.3,45.187,49.3
		c28.178,0,45.666-24.729,45.666-49.3c0,24.349-17.895,48.906-45.666,48.906C2132.355,2207.49,2114.731,2183.609,2114.731,2158.588z
		"/>
	
		<linearGradient id="SVGID_14_" gradientUnits="userSpaceOnUse" x1="18.6099" y1="4297.6533" x2="18.6099" y2="4300.269" gradientTransform="matrix(16.875 0 0 -16.875 1846.0625 74672.9375)">
		<stop  offset="0" style="stop-color:#FFFFFF;stop-opacity:0"/>
		<stop  offset="1" style="stop-color:#FFFFFF"/>
	</linearGradient>
	<path opacity="0.65" fill="url(#SVGID_14_)" enable-background="new    " d="M2114.897,2157.44
		c0-20.791,14.263-46.408,44.917-46.408c25.533,0,45.504,19.804,45.504,46.408c0-26.868-18.248-47.372-45.504-47.372
		C2132.345,2110.065,2114.897,2130.012,2114.897,2157.44z"/>
</g>
</svg>
